<?xml version="1.0" standalone="no"?><svg xmlns="http://www.w3.org/2000/svg" viewBox="0 0 1440 320"><path fill="#0099ff" fill-opacity="1" d="M0,64L10.9,106.7C21.8,149,44,235,65,272C87.3,309,109,299,131,266.7C152.7,235,175,181,196,176C218.2,171,240,213,262,197.3C283.6,181,305,107,327,80C349.1,53,371,75,393,90.7C414.5,107,436,117,458,112C480,107,502,85,524,90.7C545.5,96,567,128,589,144C610.9,160,633,160,655,170.7C676.4,181,698,203,720,224C741.8,245,764,267,785,245.3C807.3,224,829,160,851,122.7C872.7,85,895,75,916,80C938.2,85,960,107,982,138.7C1003.6,171,1025,213,1047,240C1069.1,267,1091,277,1113,266.7C1134.5,256,1156,224,1178,208C1200,192,1222,192,1244,170.7C1265.5,149,1287,107,1309,101.3C1330.9,96,1353,128,1375,154.7C1396.4,181,1418,203,1429,213.3L1440,224L1440,320L1429.1,320C1418.2,320,1396,320,1375,320C1352.7,320,1331,320,1309,320C1287.3,320,1265,320,1244,320C1221.8,320,1200,320,1178,320C1156.4,320,1135,320,1113,320C1090.9,320,1069,320,1047,320C1025.5,320,1004,320,982,320C960,320,938,320,916,320C894.5,320,873,320,851,320C829.1,320,807,320,785,320C763.6,320,742,320,720,320C698.2,320,676,320,655,320C632.7,320,611,320,589,320C567.3,320,545,320,524,320C501.8,320,480,320,458,320C436.4,320,415,320,393,320C370.9,320,349,320,327,320C305.5,320,284,320,262,320C240,320,218,320,196,320C174.5,320,153,320,131,320C109.1,320,87,320,65,320C43.6,320,22,320,11,320L0,320Z"></path></svg>